<svg width="59" height="72" viewBox="0 0 59 72" fill="none" xmlns="http://www.w3.org/2000/svg">
<path d="M2.81594 72C1.52334 72 0.707523 71.6019 0.41556 71.4333C0.230739 71.0969 0.0306122 70.0099 0 69.2906C0.0765304 69.1837 0.306123 69.1529 0.36926 69.245C0.598852 70.0255 1.23099 71.5254 3.01606 71.5254C4.30866 71.5254 4.93966 70.6836 4.93966 69.7652C4.93966 69.0916 4.80114 68.3418 3.67691 67.6225L2.21517 66.6734C1.44566 66.1683 0.552933 65.296 0.552933 64.0409C0.552933 62.5871 1.69171 61.4084 3.69068 61.4084C4.17408 61.4167 4.65465 61.4836 5.1218 61.6074C5.29652 61.6616 5.47769 61.6924 5.66057 61.6992C5.79909 62.0664 5.93761 62.9239 5.93761 63.5667C5.87601 63.6584 5.63149 63.7044 5.55267 63.6123C5.35292 62.8778 4.93736 61.883 3.45994 61.883C1.95191 61.883 1.62857 62.8778 1.62857 63.5819C1.62857 64.4694 2.36747 65.1122 2.93686 65.4643L4.17129 66.2296C5.14055 66.8267 6.09489 67.7139 6.09489 69.1685C6.09374 70.8514 4.81644 72 2.81594 72Z" fill="#020202"/>
<path d="M12.0386 62.7092C13.1621 61.8369 14.5932 61.4084 16.1938 61.4084C17.0246 61.4084 18.1943 61.577 18.9176 61.7757C19.102 61.8217 19.2099 61.8518 19.3484 61.8369C19.3637 62.189 19.4406 63.1534 19.5639 64.0869C19.4873 64.1939 19.2577 64.2095 19.1483 64.1174C18.9187 63.0769 18.225 61.883 15.9937 61.883C13.6393 61.883 11.6388 63.3673 11.6388 66.5356C11.6388 69.75 13.6856 71.5254 16.2091 71.5254C18.1943 71.5254 19.0714 70.2398 19.4253 69.3367C19.5329 69.2606 19.7636 69.2906 19.8252 69.398C19.7177 70.1937 19.3178 71.2038 19.0867 71.4946C18.903 71.5291 18.7228 71.5801 18.5483 71.6468C18.2097 71.769 17.1015 71.9988 16.1169 71.9988C14.7317 71.9988 13.4085 71.7233 12.2851 70.9732C11.0537 70.1313 10.0997 68.7384 10.0997 66.7643C10.0997 65.0665 10.8677 63.6123 12.0386 62.7092Z" fill="#020202"/>
<path d="M29.6735 68.2041C29.566 67.8673 29.5044 67.8216 29.0425 67.8216H26.7191C26.3341 67.8216 26.2419 67.8673 26.134 68.1888L25.5956 69.7957C25.366 70.4845 25.257 70.8994 25.257 71.066C25.257 71.2499 25.3335 71.3416 25.7031 71.3724L26.2109 71.4181C26.3188 71.4942 26.3188 71.7397 26.1803 71.801C25.78 71.7701 25.3033 71.7701 24.5797 71.7549C24.0719 71.7549 23.5182 71.7853 23.1026 71.801C23.0104 71.7397 22.9794 71.4965 23.0716 71.4181L23.5798 71.3724C23.949 71.3416 24.2877 71.1734 24.5027 70.6223C24.7798 69.9182 25.2107 68.9234 25.857 67.2092L27.4258 63.0769C27.6413 62.5258 27.7319 62.2198 27.828 61.9393C27.9045 61.7308 28.3342 61.7026 28.5635 61.6348C28.6534 61.6139 28.7498 61.5907 28.7804 61.698C28.9805 62.3713 29.1631 62.9227 29.3957 63.596L31.5038 69.7489C31.9503 71.0649 32.1504 71.2948 32.812 71.3713L33.2276 71.417C33.3351 71.4931 33.3041 71.7385 33.2276 71.7998C32.5966 71.769 32.0582 71.7538 31.3656 71.7538C30.6267 71.7538 30.042 71.7842 29.5959 71.7998C29.4726 71.7385 29.4573 71.4954 29.5652 71.417L30.0114 71.3713C30.3344 71.3404 30.5498 71.2487 30.5498 71.0957C30.5498 70.9271 30.4733 70.652 30.3501 70.2843L29.6735 68.2041ZM26.6265 66.842C26.5036 67.194 26.5189 67.2092 26.9498 67.2092H28.8424C29.289 67.2092 29.3196 67.148 29.1811 66.7346L28.3499 64.2399C28.2271 63.8727 28.0886 63.4594 27.996 63.2759H27.9654C27.9191 63.352 27.7652 63.7197 27.5961 64.1787L26.6265 66.842Z" fill="#020202"/>
<path d="M38.4244 63.9492C38.4244 62.342 38.3938 62.0973 37.4241 62.0208L37.0415 61.99C36.9489 61.9291 36.9799 61.6535 37.0721 61.6094C37.9342 61.6398 38.4573 61.6554 39.0726 61.6554C39.673 61.6554 40.1961 61.6398 40.9656 61.6094C41.0578 61.6554 41.0888 61.931 40.9962 61.99L40.6269 62.0208C39.7189 62.0969 39.6883 62.342 39.6883 63.9492V69.2773C39.6883 70.2417 39.7346 70.6394 40.0116 70.9302C40.1808 71.0988 40.4731 71.2822 41.6888 71.2822C42.9967 71.2822 43.32 71.221 43.5661 71.0832C43.8722 70.8998 44.274 70.3487 44.582 69.5681C44.6742 69.492 44.9647 69.5529 44.9647 69.6598C44.9647 69.8284 44.5338 71.3896 44.3184 71.8029C43.5336 71.772 42.0714 71.7568 40.4865 71.7568H39.0707C38.4244 71.7568 37.9323 71.772 37.0702 71.8029C36.978 71.7568 36.947 71.5117 37.0396 71.42L37.501 71.3743C38.3938 71.2822 38.4244 71.068 38.4244 69.4612V63.9492Z" fill="#020202"/>
<path d="M55.3743 68.2041C55.2668 67.8672 55.2052 67.8216 54.7437 67.8216H52.4199C52.0353 67.8216 51.9427 67.8673 51.8352 68.1888L51.2964 69.7957C51.0668 70.4845 50.9582 70.8993 50.9582 71.066C50.9582 71.2499 51.0347 71.3416 51.4043 71.3724L51.9121 71.4181C52.0196 71.4942 52.0196 71.7397 51.8815 71.8009C51.4812 71.7701 51.0041 71.7701 50.2809 71.7549C49.7731 71.7549 49.219 71.7853 48.8038 71.8009C48.7112 71.7397 48.6806 71.4965 48.7728 71.4181L49.2806 71.3724C49.6499 71.3416 49.9885 71.1734 50.204 70.6223C50.481 69.9182 50.9119 68.9234 51.5582 67.2092L53.127 63.0769C53.3425 62.5258 53.4331 62.235 53.3888 61.9899C53.758 61.883 54.0198 61.6093 54.1889 61.4084C54.2811 61.4084 54.389 61.4392 54.4185 61.5462C54.6186 62.2198 54.8647 62.9239 55.0958 63.5971L57.2069 69.75C57.653 71.066 57.8532 71.2959 58.5148 71.3724L58.9303 71.4181C59.0382 71.4942 59.0069 71.7397 58.9303 71.8009C58.2997 71.7701 57.7609 71.7549 57.0683 71.7549C56.3298 71.7549 55.7451 71.7853 55.2986 71.8009C55.1757 71.7397 55.1604 71.4965 55.268 71.4181L55.7141 71.3724C56.0375 71.3416 56.2529 71.2499 56.2529 71.0969C56.2529 70.9283 56.1764 70.6531 56.0528 70.2855L55.3743 68.2041ZM52.3277 66.842C52.2045 67.194 52.2198 67.2092 52.6506 67.2092H54.5436C54.9898 67.2092 55.0204 67.148 54.8819 66.7346L54.0511 64.2399C53.9279 63.8727 53.7894 63.4593 53.6972 63.2759H53.6666C53.6203 63.352 53.4664 63.7197 53.2969 64.1786L52.3277 66.842Z" fill="#020202"/>
<path d="M15.7312 10.1798C15.825 10.1182 15.9011 10.0066 15.9543 9.92216L16.0553 9.76232L16.1158 9.5922C16.2344 9.25652 16.0584 9.02475 15.8368 8.79526C15.7821 8.73855 15.7144 8.68109 15.6359 8.68679C15.5988 8.69153 15.5637 8.70671 15.5349 8.73056C15.4006 8.83484 15.3788 9.02551 15.3677 9.19487L15.3317 9.73568C15.3218 9.82228 15.3248 9.90987 15.3405 9.99561C15.3487 10.0385 15.3661 10.0792 15.3916 10.1147C15.4171 10.1503 15.4501 10.1799 15.4882 10.2015C15.5267 10.221 15.5699 10.2293 15.6129 10.2254C15.6558 10.2216 15.6968 10.2058 15.7312 10.1798Z" fill="#020202"/>
<path d="M15.7748 14.5584C15.8392 14.4516 15.8932 14.339 15.9359 14.2219C16.0507 13.8985 15.9061 13.4901 15.6604 13.2674C15.5311 13.1502 14.9766 12.7879 14.9372 13.0813C14.8664 13.6084 14.9846 14.147 15.2005 14.6353C15.2311 14.7041 15.2667 14.7761 15.3317 14.8149C15.4978 14.9146 15.6589 14.7475 15.7748 14.5584Z" fill="#020202"/>
<path d="M15.8996 33.5076C16.2329 33.4695 16.0852 32.7049 15.9872 32.5333C15.9107 32.4001 15.6895 32.2596 15.5468 32.4161C15.5224 32.4483 15.5069 32.4864 15.502 32.5264C15.4637 32.7087 15.4255 32.896 15.4553 33.0798C15.4852 33.2636 15.6045 33.4448 15.7848 33.4954C15.8219 33.5068 15.8609 33.511 15.8996 33.5076Z" fill="#020202"/>
<path d="M16.1789 38.712C16.7682 38.6359 16.3897 36.5929 15.6929 36.4106C14.7612 36.1667 15.4251 37.9996 15.6164 38.3094C15.7232 38.4799 15.8605 38.6519 16.0557 38.7021C16.0957 38.7132 16.1376 38.7166 16.1789 38.712Z" fill="#020202"/>
<path d="M18.2759 4.87754C18.683 4.84937 18.7794 4.47678 19.0327 4.19249C19.1923 4.01285 19.6722 3.61895 19.4625 3.34798C19.4058 3.27452 19.2903 3.27186 19.208 3.31601C19.1257 3.36015 19.0668 3.43437 19.0044 3.50326C18.8196 3.70611 18.5866 3.85986 18.3922 4.05396C18.1978 4.24805 18.039 4.50609 18.0635 4.77706C18.0617 4.78982 18.0627 4.80283 18.0667 4.81511C18.0706 4.82739 18.0773 4.83864 18.0862 4.848C18.0951 4.85737 18.106 4.86461 18.1181 4.8692C18.1302 4.87379 18.1432 4.8756 18.1561 4.87449C18.1959 4.87855 18.2359 4.87956 18.2759 4.87754Z" fill="#020202"/>
<path d="M16.1793 7.80726L16.2175 7.91344C16.2328 7.94693 16.2558 7.97662 16.2723 8.00935C16.3132 8.08044 16.3597 8.14815 16.4115 8.21182C16.6151 8.4866 16.8107 8.74463 16.9936 8.97907C17.0835 9.09515 17.1738 9.21465 17.2541 9.3117L17.3938 9.45252L17.5419 9.55071C17.7253 9.64716 17.9381 9.67265 18.1392 9.62226C18.2146 9.6057 18.2866 9.57635 18.352 9.53548C18.4034 9.51071 18.4507 9.47809 18.492 9.43881L18.5973 9.34405L18.9554 8.93378C19.0675 8.80172 19.2049 8.64188 19.3557 8.45273L19.5952 8.15663C19.6335 8.09955 19.6717 8.04246 19.71 7.98195C19.7322 7.92029 19.755 7.85686 19.7785 7.79166C19.8164 7.65046 19.8251 7.50307 19.8041 7.35843C19.783 7.21379 19.7327 7.07491 19.6561 6.95019C19.6247 6.88207 19.5646 6.83335 19.5187 6.77665C19.4663 6.71994 19.3936 6.65638 19.3308 6.59549L18.9321 6.21681L18.5246 5.82138L18.4224 5.71977L18.4036 5.70036L18.399 5.69579L18.3918 5.69008L18.3363 5.64365C18.3033 5.61296 18.2676 5.58532 18.2295 5.56107C18.205 5.55375 18.1813 5.54406 18.1587 5.53214C18.0416 5.49099 17.9156 5.48179 17.7937 5.5055C17.6715 5.5451 17.5611 5.61443 17.4726 5.70721C17.2048 6.0014 16.9408 6.29597 16.6645 6.57265L16.5585 6.68036C16.4054 6.95361 16.2669 7.23258 16.1376 7.51535C16.1376 7.53971 16.1376 7.56369 16.1376 7.58843C16.1525 7.65959 16.1483 7.74028 16.1793 7.80726Z" fill="#020202"/>
<path d="M16.3989 12.5029C16.4139 12.5356 16.4345 12.5649 16.4514 12.5965C16.4912 12.6661 16.5365 12.7324 16.5868 12.7948C16.7854 13.065 16.9764 13.3177 17.1551 13.5483L17.4084 13.876L17.5442 14.0153C17.5921 14.0503 17.6422 14.0793 17.6896 14.1112C17.8698 14.2046 18.078 14.2292 18.2751 14.1805C18.3489 14.164 18.4194 14.1353 18.4836 14.0956C18.5339 14.0712 18.5801 14.0392 18.6206 14.0009L18.7247 13.9076L19.0756 13.505C19.1858 13.3756 19.3197 13.2184 19.469 13.0346L19.7024 12.7434C19.7384 12.6875 19.7747 12.6292 19.8122 12.571L19.8788 12.3868C19.9153 12.2489 19.9233 12.105 19.9023 11.9639C19.8812 11.8227 19.8316 11.6874 19.7563 11.5659C19.7253 11.4997 19.6664 11.4517 19.6216 11.3977C19.5704 11.3425 19.4984 11.2805 19.4368 11.2211L19.045 10.8512L18.6447 10.4649L18.5437 10.3659L18.5188 10.3408L18.5062 10.3282L18.5032 10.3252L18.5211 10.3438L18.5142 10.3381L18.4591 10.2932C18.4268 10.2635 18.3917 10.2368 18.3543 10.2137C18.3311 10.2078 18.3089 10.1988 18.2881 10.187C18.1768 10.1468 18.0564 10.1377 17.9403 10.1608C17.8238 10.1994 17.7187 10.2659 17.6341 10.3545C17.3743 10.643 17.1118 10.9296 16.8432 11.2024L16.6423 11.4061L16.5922 11.4567C16.5995 11.4475 16.5719 11.4814 16.6075 11.4369L16.6048 11.4403L16.5991 11.4472L16.588 11.4609L16.5654 11.4883L16.4751 11.5971C16.4273 11.6843 16.3465 11.822 16.3358 11.9686C16.3174 12.0401 16.3308 12.1128 16.3236 12.1866C16.3404 12.2559 16.3354 12.3347 16.3657 12.3998L16.3989 12.5029Z" fill="#020202"/>
<path d="M19.9312 17.4116L20.0016 17.2183C20.0404 17.0737 20.0493 16.9228 20.0278 16.7747C20.0063 16.6266 19.9548 16.4844 19.8765 16.3566C19.8443 16.287 19.7827 16.2368 19.7356 16.1785C19.6821 16.1207 19.6078 16.0556 19.5443 15.9932L19.1364 15.6058L18.7193 15.2004L18.6149 15.0965L18.595 15.076L18.5904 15.0718L18.5835 15.0661L18.5265 15.0185C18.4927 14.9871 18.456 14.9588 18.417 14.934C18.3919 14.9267 18.3676 14.9166 18.3447 14.904C18.2247 14.8617 18.0954 14.8522 17.9705 14.8766C17.845 14.9169 17.7317 14.988 17.641 15.0832C17.3686 15.3843 17.0965 15.6861 16.8137 15.9692L16.6044 16.1823L16.5524 16.2352L16.5677 16.2162L16.5646 16.2196L16.5589 16.2269L16.5474 16.2413L16.524 16.2702L16.4307 16.3844C16.3794 16.4792 16.2952 16.6249 16.2845 16.7795C16.2658 16.8556 16.2799 16.9317 16.273 17.0101C16.291 17.0828 16.286 17.1658 16.3186 17.2343L16.3568 17.3427C16.3729 17.3774 16.3951 17.4078 16.4127 17.4409C16.4547 17.5138 16.5025 17.5832 16.5558 17.6483C16.7643 17.9296 16.9645 18.1929 17.1516 18.4335C17.2434 18.5526 17.336 18.6748 17.4194 18.776L17.5626 18.9202L17.7156 19.0203C17.9034 19.1196 18.1217 19.1458 18.3279 19.0938C18.405 19.0767 18.4787 19.0466 18.5456 19.0047C18.5983 18.9794 18.6468 18.946 18.6891 18.9058L18.7974 18.8083L19.1647 18.3897C19.2795 18.2546 19.4203 18.0909 19.5749 17.8972L19.8202 17.5928C19.8527 17.5319 19.8937 17.474 19.9312 17.4116Z" fill="#020202"/>
<path d="M19.5413 21.5158C19.7628 21.4644 19.4996 21.0816 19.3997 20.9586C19.348 20.9034 19.2761 20.8406 19.2141 20.7809C18.8973 20.4818 18.6229 20.0654 18.207 19.9158C18.1486 19.8905 18.0849 19.8795 18.0214 19.8839C17.967 19.8915 17.6885 20.0943 17.6812 20.1453C17.6468 20.3843 18.2345 20.8863 18.3983 21.0229C18.6845 21.262 19.022 21.445 19.3932 21.512C19.4418 21.5231 19.4921 21.5244 19.5413 21.5158Z" fill="#020202"/>
<path d="M17.1298 32.8465C17.1758 32.8955 17.2271 32.9393 17.2829 32.977L17.4321 33.076C17.6169 33.173 17.8313 33.1988 18.034 33.1483C18.1099 33.1312 18.1824 33.1015 18.2483 33.0604C18.2997 33.0355 18.347 33.003 18.3887 32.9641C18.5801 32.7574 18.7331 32.4766 18.453 32.241C18.3107 32.12 18.1086 32.099 17.9219 32.0994C17.7039 32.0989 17.4865 32.1224 17.2737 32.1694C17.1501 32.1972 17.0142 32.2455 16.9607 32.3597C16.8872 32.5154 16.9985 32.7087 17.1298 32.8465Z" fill="#020202"/>
<path d="M19.8114 36.0487C19.846 35.917 19.8533 35.7797 19.8328 35.6451C19.8123 35.5106 19.7646 35.3815 19.6924 35.2659C19.663 35.2031 19.6067 35.1585 19.5639 35.1064C19.5149 35.0539 19.446 34.9945 19.3871 34.9378L19.0117 34.585L18.629 34.2162L18.5326 34.1218L18.5085 34.0979L18.4966 34.0861L18.4936 34.083L18.5116 34.1013L18.5047 34.096L18.4519 34.053C18.4211 34.0243 18.3875 33.9988 18.3516 33.9768C18.33 33.9716 18.3092 33.9632 18.29 33.9521C18.185 33.9147 18.0718 33.9064 17.9625 33.9281C17.8524 33.9645 17.7531 34.0272 17.6732 34.1108C17.4244 34.3867 17.1757 34.6607 16.9163 34.9214L16.7249 35.1159L16.6767 35.1639C16.684 35.1551 16.6568 35.1882 16.692 35.1445L16.6894 35.1479L16.684 35.1544L16.6729 35.1677L16.6515 35.1936L16.5654 35.2975C16.5202 35.3793 16.4426 35.5094 16.4322 35.6487C16.4146 35.7169 16.4269 35.7861 16.42 35.8561C16.4357 35.922 16.4303 35.997 16.4582 36.059L16.4908 36.1572C16.5049 36.1884 16.5244 36.2162 16.5405 36.2462C16.578 36.3132 16.6212 36.3768 16.6695 36.4365C16.8608 36.6953 17.0406 36.9374 17.2109 37.1596C17.2956 37.2687 17.3762 37.3733 17.4528 37.4732L17.5825 37.6064C17.628 37.6399 17.6758 37.6677 17.721 37.6982C17.893 37.7877 18.092 37.8114 18.2804 37.7648C18.3511 37.7493 18.4185 37.7219 18.4798 37.6837C18.528 37.6605 18.5723 37.6299 18.611 37.5931C18.6738 37.5372 18.7075 37.5067 18.7094 37.5048L19.0446 37.1208C19.1494 36.9967 19.2776 36.8464 19.42 36.6702L19.6431 36.392L19.7479 36.2268L19.8114 36.0487Z" fill="#020202"/>
<path d="M19.392 39.7579C19.345 39.708 19.2772 39.6505 19.2214 39.5965L18.8586 39.2582L18.4882 38.9042L18.3948 38.8133L18.3719 38.7904L18.36 38.779L18.3573 38.776L18.3753 38.7946L18.3688 38.7893L18.3179 38.7482C18.2883 38.7209 18.256 38.6967 18.2215 38.6759C18.2014 38.6712 18.1821 38.6638 18.1641 38.6538C18.0658 38.6196 17.9601 38.6122 17.858 38.6325C17.7547 38.6671 17.6614 38.7263 17.5863 38.8049C17.3468 39.0713 17.1053 39.3339 16.857 39.5843L16.6718 39.7712L16.6251 39.8172C16.6323 39.8085 16.6052 39.8416 16.6404 39.7978L16.6377 39.8012L16.6323 39.8073L16.622 39.8199L16.6014 39.845L16.5179 39.9447C16.4762 40.0208 16.4008 40.1449 16.3905 40.2774C16.3733 40.3424 16.3848 40.4083 16.3779 40.4753C16.3924 40.5381 16.3871 40.6096 16.4161 40.669L16.4468 40.763C16.4602 40.793 16.4785 40.8193 16.4938 40.8482C16.5297 40.9125 16.5709 40.9738 16.617 41.0313C16.7984 41.2809 16.9729 41.5146 17.1363 41.7281L17.3682 42.0303L17.4925 42.159C17.5366 42.1913 17.5821 42.2179 17.6257 42.2476C17.791 42.334 17.9825 42.357 18.1637 42.3123C18.2315 42.2974 18.2962 42.271 18.355 42.2343C18.4013 42.2119 18.4439 42.1827 18.4813 42.1475L18.5762 42.0623L18.8988 41.6924C18.9998 41.5729 19.123 41.4282 19.2596 41.2581L19.4735 40.9898L19.5742 40.8307C19.5937 40.7759 19.6124 40.7192 19.6339 40.6617C19.6669 40.5355 19.6738 40.4039 19.6541 40.2749C19.6343 40.146 19.5884 40.0224 19.5191 39.9116C19.4873 39.8511 19.4334 39.8085 19.392 39.7579Z" fill="#020202"/>
<path d="M27.4824 3.17711C27.51 3.11127 27.5467 3.05266 27.5685 2.98377C27.6159 2.83909 27.6242 2.68458 27.5927 2.5357C27.5611 2.38682 27.4908 2.2488 27.3887 2.13545C27.259 2.01515 27.1224 1.90244 26.9796 1.79788L26.5205 1.43823L26.049 1.06145L25.989 1.01388L25.9859 1.0116L25.9821 1.00893L25.9503 0.987618L25.8229 0.900847C25.7919 0.884602 25.7592 0.871837 25.7253 0.862789C25.6942 0.847495 25.6609 0.837218 25.6266 0.832343L25.5118 0.807985L25.3947 0.80532C25.3563 0.802029 25.3177 0.804207 25.2799 0.81179C25.2411 0.813724 25.2027 0.819591 25.1651 0.829297C25.0186 0.866228 24.8827 0.936299 24.7679 1.03405C24.4553 1.31682 24.143 1.59959 23.822 1.86372L23.584 2.06276L23.5247 2.11224L23.5216 2.11528L23.5186 2.11833L23.4918 2.14573L23.3862 2.25381C23.3033 2.36596 23.2496 2.49667 23.2297 2.6344C23.2255 2.78092 23.2388 2.93886 23.3165 3.07397C23.349 3.14552 23.403 3.19994 23.4504 3.26845L23.6379 3.47092C23.8844 3.73732 24.1193 3.98813 24.339 4.21648L24.4411 4.32342C25.2659 3.8279 26.2295 3.50847 27.3321 3.36511L27.3455 3.35141C27.3895 3.29357 27.4392 3.238 27.4824 3.17711Z" fill="#020202"/>
<path d="M27.4549 16.3007C27.3276 16.1834 27.1938 16.0735 27.0539 15.9715L26.6004 15.6179L26.1363 15.248L26.0774 15.2008H26.0751L26.0712 15.1981L26.0399 15.1768L25.9147 15.0916C25.8844 15.0756 25.8525 15.0628 25.8194 15.0535C25.789 15.0389 25.7565 15.029 25.723 15.0242L25.6117 15.0002L25.4969 14.9983C25.4585 14.9945 25.4198 14.9966 25.3821 15.0044C25.3444 15.0065 25.3069 15.0122 25.2703 15.0215C25.1273 15.0579 24.9946 15.1264 24.8823 15.2217C24.5762 15.4999 24.2674 15.7785 23.9513 16.0377L23.7168 16.2337L23.6586 16.2824L23.6552 16.2855L23.6529 16.2877L23.6265 16.3148L23.5228 16.421C23.4418 16.5305 23.3893 16.6582 23.3697 16.7928C23.3655 16.9359 23.3781 17.09 23.4543 17.2232C23.4857 17.2936 23.5385 17.3469 23.5848 17.4135L23.7692 17.6129C24.011 17.8763 24.2422 18.1225 24.458 18.3475L24.6156 18.513L24.6891 18.5891L24.7725 18.6572L24.8536 18.7242L24.9386 18.7699C24.992 18.8029 25.0497 18.8285 25.11 18.846C25.2201 18.8843 25.3349 18.9073 25.4513 18.9145C25.5589 18.9046 25.661 18.9103 25.7471 18.881L25.8719 18.8494L25.9744 18.8019C26.0295 18.78 26.0811 18.7501 26.1275 18.7132L26.2476 18.6249L26.664 18.2356C26.7952 18.11 26.9548 17.9585 27.1323 17.7789L27.4132 17.4969C27.4568 17.4413 27.5058 17.3865 27.5483 17.3264C27.5754 17.262 27.6114 17.2042 27.6328 17.1361C27.6796 16.9935 27.6878 16.8413 27.6566 16.6946C27.6253 16.548 27.5558 16.4121 27.4549 16.3007Z" fill="#020202"/>
<path d="M26.9678 20.6313L26.4864 20.2508L25.9928 19.8542L25.9304 19.8036H25.9278L25.9247 19.8013L25.9209 19.7986L25.8876 19.7758L25.754 19.6845C25.7206 19.6671 25.6857 19.653 25.6496 19.6422C25.6161 19.626 25.5804 19.615 25.5436 19.6095L25.4227 19.5828L25.2979 19.5798C25.2566 19.5759 25.215 19.5781 25.1743 19.5863C25.1331 19.5883 25.0922 19.5944 25.0522 19.6045C24.8954 19.6438 24.7499 19.7187 24.6271 19.8234C24.2988 20.1202 23.9712 20.4175 23.6349 20.6953L23.3854 20.905L23.3234 20.9571L23.3177 20.9632L23.2897 20.9921L23.1792 21.1063C23.0907 21.2268 23.0336 21.3673 23.0131 21.5151C23.0096 21.6711 23.0249 21.8382 23.1084 21.9817C23.1428 22.0578 23.2006 22.1152 23.2511 22.1872L23.4489 22.3988C23.7084 22.6785 23.9563 22.94 24.1874 23.1786L24.3562 23.3548L24.435 23.4355L24.5242 23.5082L24.611 23.5793L24.7021 23.628C24.7593 23.6636 24.8211 23.6911 24.8858 23.7099C25.0034 23.7505 25.1261 23.775 25.2505 23.7826C25.3653 23.7715 25.4739 23.7776 25.5661 23.7445L25.6993 23.7106L25.8087 23.6596C25.8683 23.6365 25.924 23.6047 25.9741 23.5653L26.1019 23.4709L26.5469 23.0557C26.6869 22.9221 26.8576 22.7603 27.0474 22.5685L27.3482 22.2678C27.3948 22.2089 27.4476 22.1506 27.4932 22.0867C27.5223 22.0178 27.5613 21.9558 27.5846 21.8831C27.635 21.7305 27.6444 21.5675 27.6117 21.4102C27.579 21.253 27.5054 21.107 27.3983 20.9868C27.262 20.86 27.1182 20.7413 26.9678 20.6313Z" fill="#020202"/>
<path d="M27.2731 25.486L26.8051 25.1192L26.3257 24.7348C26.3257 24.7348 26.2648 24.6861 26.256 24.6796L26.2239 24.6579L26.0942 24.5692C26.0622 24.5531 26.0286 24.5403 25.9939 24.5312C25.962 24.5155 25.9278 24.5048 25.8925 24.4996L25.7777 24.4745L25.6576 24.4718C25.4927 24.4463 25.0178 24.5563 24.9087 24.7055C24.7109 24.9764 25.1046 25.2573 25.3032 25.3696C25.8719 25.6919 26.4895 25.9507 27.14 26.0204C27.2456 26.0318 27.3608 26.036 27.4495 25.9774C27.7067 25.8042 27.4017 25.5869 27.2731 25.486Z" fill="#020202"/>
<path d="M23.6016 40.1042C23.5607 40.1175 23.5167 40.1537 23.452 40.2184C23.3685 40.3313 23.3143 40.4629 23.2943 40.6016C23.2905 40.7489 23.3039 40.9061 23.3824 41.0435C23.4145 41.1154 23.4688 41.1702 23.5167 41.2391L23.7053 41.4423C23.9525 41.7087 24.189 41.9618 24.4094 42.1909L24.5705 42.3599L24.647 42.436L24.732 42.5057L24.815 42.5738L24.9019 42.6206C24.9564 42.6546 25.0154 42.681 25.0771 42.699C25.1894 42.7381 25.3066 42.7616 25.4253 42.769C25.5352 42.7588 25.6396 42.7649 25.7276 42.7344L25.8551 42.7024L25.9599 42.6533C26.0167 42.6314 26.0698 42.6011 26.1176 42.5635L26.2404 42.4729L26.6655 42.0756C26.8209 41.9306 27.101 41.7186 26.9016 41.4926C26.734 41.3023 26.2699 41.252 26.0445 41.1717C25.5603 41.0007 25.0891 40.7954 24.6344 40.5575C24.3899 40.4285 24.1243 40.3417 23.8825 40.2074C23.7355 40.129 23.6739 40.0806 23.6016 40.1042Z" fill="#020202"/>
<path d="M26.6838 44.3142C26.5327 44.1966 26.3858 44.0729 26.2361 43.9545C26.2361 43.9545 26.1791 43.9092 26.1726 43.9047L26.1424 43.8841L26.0211 43.8019C25.9921 43.7869 25.9616 43.7751 25.93 43.7669C25.9012 43.7531 25.8703 43.7438 25.8386 43.7395L25.7322 43.717H25.6228C25.5867 43.7137 25.5503 43.7158 25.5148 43.7231C25.4789 43.7251 25.4433 43.7306 25.4085 43.7395C25.2722 43.7741 25.1457 43.8392 25.0384 43.9298C24.9011 44.0539 24.409 44.3408 24.5494 44.5623C24.5896 44.6182 24.6447 44.6617 24.7086 44.6879C24.8976 44.7766 25.0266 44.7412 25.2152 44.7355C25.4689 44.7279 25.7364 44.7869 25.9897 44.8116C26.2794 44.8379 26.7745 45.0255 27.0447 44.863C27.2953 44.7107 27.0872 44.6049 26.9299 44.4961C26.8449 44.4367 26.7638 44.3762 26.6838 44.3142Z" fill="#020202"/>
<path d="M27.3439 0.564782C27.3401 0.708642 27.3524 0.862779 27.4289 0.995982C27.4603 1.06639 27.5131 1.12043 27.5598 1.18627L27.7446 1.3857C27.9864 1.64944 28.2179 1.89606 28.4334 2.12098L28.591 2.28692L28.6645 2.36303L28.7479 2.43154L28.8294 2.49852L28.9143 2.54419C28.9678 2.57737 29.0256 2.60299 29.0862 2.62031C29.1962 2.65884 29.3111 2.68202 29.4275 2.68919C29.535 2.67892 29.6376 2.685 29.724 2.65532L29.8488 2.62411L29.9517 2.57616C30.0069 2.55428 30.0584 2.5244 30.1048 2.48748L30.2249 2.39919L30.642 2.00947C30.7733 1.8835 30.9332 1.73165 31.1108 1.55277L31.392 1.27C31.436 1.21444 31.485 1.15963 31.5275 1.0995C31.5546 1.0348 31.5906 0.976952 31.612 0.909208C31.6584 0.76689 31.6663 0.614969 31.6351 0.468636C31.6039 0.322303 31.5346 0.186688 31.4341 0.0753545L31.4249 0.0669805C30.9432 0.0235941 30.5154 0 30.1518 0C29.2485 0 28.3855 0.0412297 27.5628 0.123689L27.4959 0.191812C27.4153 0.301884 27.3631 0.42996 27.3439 0.564782Z" fill="#020202"/>
<path d="M27.9229 19.987L28.1012 20.1807C28.335 20.4365 28.5604 20.6755 28.7674 20.8943L28.9205 21.0553L28.9912 21.1288L29.072 21.1954L29.1485 21.2601L29.2308 21.3046C29.2824 21.3373 29.3383 21.3629 29.3969 21.3807C29.5033 21.4179 29.6144 21.4405 29.7271 21.4477C29.8312 21.4378 29.9303 21.4439 30.0141 21.415L30.135 21.3849L30.2345 21.3385C30.2885 21.3175 30.339 21.2886 30.3845 21.2528L30.4993 21.1672L30.903 20.7897C31.03 20.6679 31.185 20.5206 31.3564 20.3455L31.6281 20.0715C31.6706 20.0175 31.7184 19.9646 31.7593 19.9063C31.785 19.8435 31.8198 19.7876 31.8401 19.7221C31.8846 19.5847 31.892 19.4381 31.8614 19.297C31.8308 19.1559 31.7634 19.0253 31.666 18.9183C31.542 18.8046 31.4115 18.698 31.2753 18.599L30.8352 18.2565L30.3845 17.8988L30.3271 17.8535L30.3233 17.8508L30.293 17.8303L30.1713 17.7481C30.1423 17.7331 30.1118 17.7212 30.0803 17.7127C30.0511 17.6989 30.02 17.6896 29.9881 17.6853L29.8817 17.6624H29.7719C29.7355 17.6591 29.6989 17.6612 29.6632 17.6685C29.6271 17.6705 29.5914 17.6759 29.5564 17.6849C29.4196 17.7193 29.2925 17.7844 29.1849 17.8752C28.8864 18.1446 28.5887 18.4148 28.2814 18.6656L28.0541 18.8559L27.9979 18.9031L27.9952 18.9054L27.9929 18.9077L27.9673 18.9339L27.8662 19.0367C27.7883 19.141 27.7375 19.2629 27.7182 19.3914C27.7136 19.5288 27.7247 19.6768 27.7977 19.8055C27.8276 19.8698 27.8781 19.9216 27.9229 19.987Z" fill="#020202"/>
<path d="M32.1049 24.4448C32.1536 24.2968 32.1623 24.1387 32.1303 23.9863C32.0983 23.8339 32.0266 23.6925 31.9224 23.5763C31.7902 23.4532 31.651 23.338 31.5053 23.2311L31.0362 22.8631C30.8785 22.7362 30.7183 22.6078 30.5555 22.4779L30.4947 22.4292L30.4909 22.4265L30.487 22.4239L30.4545 22.4018L30.3248 22.3131C30.2927 22.297 30.259 22.2842 30.2242 22.2751C30.1922 22.2594 30.158 22.2488 30.1228 22.2435L30.0061 22.2184L29.8855 22.2157C29.8458 22.2118 29.8057 22.2139 29.7665 22.2218C29.727 22.2241 29.6878 22.2301 29.6494 22.2397C29.4987 22.2777 29.3587 22.3497 29.2404 22.4501C28.9212 22.739 28.6025 23.0279 28.2749 23.2977L28.0323 23.5013L27.9719 23.5519V23.5538L27.9673 23.5584L27.9401 23.5866L27.8322 23.6969C27.7471 23.8127 27.692 23.9474 27.6715 24.0893C27.6681 24.2415 27.6822 24.401 27.7622 24.5399C27.7955 24.6134 27.851 24.6693 27.8996 24.7393L28.0909 24.9452C28.3427 25.2177 28.583 25.4727 28.8072 25.7064L28.9714 25.878L29.0479 25.9564L29.1344 26.0272L29.2186 26.0965L29.3073 26.1441C29.3627 26.1786 29.4226 26.2053 29.4853 26.2236C29.5995 26.2633 29.7188 26.2871 29.8396 26.2944C29.951 26.2841 30.0569 26.2898 30.1457 26.2594L30.2751 26.2267L30.3814 26.1768C30.4392 26.1546 30.4933 26.1238 30.5418 26.0855L30.6665 25.9937L31.0989 25.5896C31.2347 25.4598 31.4008 25.3022 31.5849 25.1154L31.8772 24.8231C31.9228 24.7656 31.9736 24.7089 32.018 24.6465C32.0437 24.5753 32.0816 24.5152 32.1049 24.4448Z" fill="#020202"/>
<path d="M27.7572 42.5841C27.7572 42.5841 27.6986 42.6335 27.6925 42.6392L27.6657 42.6663L27.5609 42.7736C27.4787 42.8845 27.4254 43.014 27.4055 43.1504C27.4017 43.2954 27.4143 43.4514 27.4916 43.5857C27.5234 43.6569 27.577 43.711 27.624 43.7791C27.6868 43.8468 27.7488 43.9142 27.8104 43.98C28.1548 44.353 28.3997 44.6849 28.9074 44.8124C29.3938 44.9349 29.8025 44.8124 30.2816 44.7933C30.4924 44.7846 30.5211 44.8036 30.6967 44.6441C30.8724 44.4847 31.0411 44.3161 31.2072 44.1467L31.4911 43.862C31.5351 43.8061 31.5849 43.7509 31.6277 43.6904C31.6549 43.6253 31.6912 43.5667 31.7131 43.5001C31.7599 43.3565 31.7681 43.2032 31.7366 43.0556C31.7052 42.9079 31.6353 42.771 31.534 42.6586C31.4052 42.5394 31.2695 42.4277 31.1276 42.3241C30.8949 42.1433 30.6684 41.9275 30.4006 41.7966C30.2915 41.7433 30.1641 41.7479 30.0428 41.7544C29.2775 41.7955 28.5914 41.8895 27.9948 42.3884L27.7572 42.5841Z" fill="#020202"/>
<path d="M34.1712 5.07316L34.1823 5.07012L34.3143 5.03701L34.4226 4.98639C34.4814 4.96345 34.5365 4.93203 34.586 4.89314L34.7115 4.80066L35.1508 4.39002C35.2893 4.25757 35.4569 4.09773 35.646 3.90744L35.9437 3.6102C35.99 3.55159 36.042 3.49374 36.0872 3.43057C36.1162 3.36244 36.1545 3.30117 36.1775 3.22924C36.2273 3.07838 36.2364 2.91717 36.204 2.7617C36.1715 2.60624 36.0987 2.46195 35.9926 2.34325C35.8582 2.21745 35.7163 2.09965 35.5679 1.99045L35.0911 1.61557L34.6025 1.22281L34.5405 1.17296H34.5386L34.5351 1.17029L34.5309 1.16725L34.498 1.14479L34.366 1.0546C34.3333 1.03727 34.2988 1.02349 34.2631 1.01349C34.2302 0.997109 34.195 0.98606 34.1586 0.980762L34.0392 0.954883L33.916 0.951838C33.8753 0.948112 33.8343 0.950294 33.7943 0.958309C33.7537 0.960335 33.7135 0.966455 33.6742 0.976576C33.519 1.0151 33.375 1.08883 33.2532 1.19198C32.9284 1.48579 32.6027 1.78037 32.271 2.05515L32.0242 2.26256L31.9629 2.31394L31.9576 2.31927L31.9297 2.34781L31.8202 2.46199C31.7329 2.58082 31.6765 2.71927 31.6561 2.86502C31.6526 3.01726 31.6675 3.18357 31.7498 3.32553C31.7839 3.40164 31.8409 3.45759 31.8906 3.52876L32.0862 3.73846C32.2469 3.91201 32.4011 4.07527 32.5515 4.23322C33.0001 4.47928 33.4253 4.76539 33.8219 5.088C33.9375 5.07137 34.0546 5.0664 34.1712 5.07316Z" fill="#020202"/>
<path d="M32.4152 17.8485C32.2928 18.1092 32.8798 18.5419 33.024 18.6927L33.1886 18.8647L33.2651 18.9435L33.3519 19.0143L33.4365 19.0835L33.5253 19.1315C33.5809 19.1661 33.641 19.193 33.704 19.2114C33.8185 19.2511 33.938 19.2749 34.0591 19.2822C34.1708 19.2719 34.2772 19.2776 34.3671 19.2468L34.4968 19.2141L34.604 19.1642C34.847 19.0592 35.1627 18.8833 35.2078 18.5994C35.2488 18.341 35.0838 18.0837 34.8634 17.9414C34.643 17.7991 34.3752 17.7511 34.1146 17.7157C33.6722 17.6571 33.223 17.6308 32.7795 17.6776C32.6647 17.6898 32.543 17.7104 32.4596 17.7895C32.4412 17.8062 32.4261 17.8263 32.4152 17.8485Z" fill="#020202"/>
<path d="M31.9254 22.226C31.956 22.2945 32.0073 22.347 32.0525 22.4128L32.2331 22.6084C32.4696 22.8669 32.6953 23.1085 32.9066 23.3289L33.0596 23.4914L33.1312 23.5675L33.2127 23.6349L33.2923 23.7L33.3753 23.7452C33.4275 23.7782 33.484 23.8039 33.5433 23.8214C33.6508 23.8591 33.7631 23.8819 33.877 23.8891C33.9822 23.8792 34.0824 23.8849 34.167 23.856L34.2891 23.8255L34.3897 23.7787C34.4448 23.7577 34.4964 23.7286 34.5428 23.6923L34.6602 23.6056L35.0682 23.225C35.1963 23.1021 35.3528 22.9533 35.5273 22.7763L35.8025 22.4996C35.8453 22.4452 35.8931 22.3915 35.9349 22.3329C35.9609 22.2697 35.9961 22.213 36.0167 22.1468C36.0619 22.0079 36.0694 21.8596 36.0386 21.7168C36.0079 21.574 35.9399 21.4418 35.8415 21.3335C35.7163 21.2184 35.5846 21.1105 35.447 21.0104L35.0023 20.6648L34.5474 20.3029L34.4896 20.2572L34.4858 20.2545L34.4551 20.2336L34.3323 20.1503C34.3028 20.1352 34.2717 20.1232 34.2397 20.1145C34.2103 20.1003 34.1788 20.0908 34.1463 20.0863L34.0381 20.0631H33.9267C33.89 20.0598 33.853 20.0619 33.8169 20.0692C33.7802 20.0713 33.7438 20.0769 33.7082 20.0859C33.5692 20.1214 33.4403 20.1881 33.3313 20.2808C33.0298 20.5529 32.729 20.8258 32.4191 21.08L32.1895 21.2703L32.1324 21.3179L32.1294 21.3206L32.1271 21.3228L32.1015 21.3495L31.9993 21.453C31.9204 21.5591 31.8689 21.6829 31.8493 21.8134C31.8401 21.9466 31.8516 22.0958 31.9254 22.226Z" fill="#020202"/>
<path d="M36.0791 27.0597C36.1059 26.9954 36.1419 26.938 36.1629 26.8695C36.2088 26.7282 36.2166 26.5774 36.1856 26.4322C36.1545 26.287 36.0856 26.1525 35.9858 26.0421C35.8591 25.9255 35.726 25.8161 35.587 25.7144L35.1363 25.3631L34.6748 24.9955L34.6162 24.9487H34.6139L34.6101 24.946L34.5791 24.9251L34.4544 24.8402C34.4242 24.8244 34.3926 24.8117 34.3599 24.8021C34.3297 24.7876 34.2974 24.7779 34.2642 24.7732L34.154 24.7496L34.0392 24.7473C34.0016 24.744 33.9637 24.7461 33.9267 24.7538C33.8894 24.7557 33.8523 24.7613 33.8161 24.7705C33.6742 24.8068 33.5424 24.8747 33.4308 24.9692C33.1247 25.2459 32.8185 25.523 32.5048 25.7806L32.2721 25.9755L32.2139 26.0238L32.2105 26.0268V26.0291L32.1841 26.0558L32.0808 26.1612C32.0002 26.2698 31.9476 26.3964 31.9277 26.53C31.9235 26.6719 31.9358 26.8249 32.0111 26.9574C32.0425 27.027 32.0949 27.0803 32.1409 27.1477L32.3245 27.3459C32.5648 27.6082 32.7944 27.8533 33.0091 28.0767L33.1656 28.2415L33.2383 28.3176L33.3213 28.3857L33.4021 28.4519L33.4867 28.4976C33.5397 28.5305 33.597 28.5561 33.6569 28.5737C33.7663 28.6118 33.8803 28.6347 33.996 28.6418C34.1027 28.6319 34.2045 28.638 34.2902 28.6083L34.4142 28.5775L34.5164 28.5299C34.5714 28.5082 34.623 28.4786 34.6694 28.442L34.7888 28.3541L35.2032 27.9671C35.3333 27.8422 35.4921 27.6911 35.6685 27.5104C35.7562 27.4224 35.8495 27.3288 35.9475 27.2299C35.9881 27.1739 36.037 27.1195 36.0791 27.0597Z" fill="#020202"/>
<path d="M33.1304 42.2317L33.2 42.304L33.2796 42.3698L33.3562 42.4337L33.4373 42.4779C33.4882 42.5099 33.5433 42.5347 33.6011 42.5517C33.7061 42.5887 33.8159 42.611 33.9271 42.6179C34.03 42.6088 34.1276 42.6145 34.2103 42.586L34.3296 42.5563L34.428 42.5106C34.4813 42.49 34.5312 42.4615 34.5761 42.4261L34.6909 42.3413L35.0892 41.9687C35.2147 41.8484 35.3674 41.7023 35.5369 41.5295L35.8048 41.2589C35.8465 41.206 35.8935 41.1535 35.9337 41.0956C35.9594 41.034 35.9934 40.9788 36.0137 40.9145C36.1503 40.4737 35.9303 40.089 35.4581 40.264C34.8971 40.4715 34.3939 40.8235 33.8215 41.0252C33.5483 41.1215 33.2743 41.1995 32.9961 41.2733C32.8319 41.3171 32.6402 41.3833 32.5974 41.5778C32.5591 41.751 32.871 41.9584 32.9777 42.0726L33.1304 42.2317Z" fill="#020202"/>
<path d="M34.6863 43.55C34.6423 43.5037 34.5927 43.463 34.5386 43.429C34.507 43.413 34.474 43.4003 34.4399 43.3909C34.4083 43.3758 34.3746 43.3654 34.34 43.3601L34.2252 43.3353L34.1066 43.3327C34.0674 43.3291 34.028 43.3313 33.9895 43.3391C33.9507 43.3411 33.9123 43.347 33.8747 43.3567C33.7264 43.3941 33.5887 43.4651 33.4725 43.5641C33.3126 43.7087 32.9089 43.8354 32.8702 44.063C32.8636 44.0914 32.8685 44.1212 32.884 44.146C32.9051 44.1687 32.9333 44.1837 32.964 44.1886C33.5479 44.345 34.115 44.2225 34.6205 43.9332C34.829 43.8122 34.795 43.668 34.6863 43.55Z" fill="#020202"/>
<path d="M37.1613 1.69207L37.3235 1.86219L37.4 1.9383L37.4857 2.00871L37.5692 2.07683L37.6568 2.12441C37.7118 2.15844 37.7711 2.18494 37.8332 2.20319C37.9464 2.24254 38.0644 2.26623 38.1841 2.2736C38.2947 2.26332 38.3999 2.26903 38.4902 2.23858L38.618 2.20623L38.7236 2.15714C38.781 2.13503 38.8347 2.10436 38.8828 2.06618C39.0133 1.97027 39.324 1.83973 39.1258 1.6719C38.6567 1.27571 38.0509 1.05573 37.4379 1.00359C37.2894 0.991035 37.128 0.991416 37.0067 1.07743C36.7262 1.27685 37.0124 1.53603 37.1613 1.69207Z" fill="#020202"/>
<path d="M36.2498 5.20102C36.2808 5.27029 36.3324 5.32319 36.3783 5.39131L36.5605 5.58845C36.7989 5.84877 37.0269 6.09234 37.2401 6.31422L37.3954 6.47826L37.4678 6.55437L37.55 6.62174L37.6304 6.68796L37.7142 6.73325C37.7669 6.76607 37.8237 6.79167 37.8833 6.80936C37.9245 6.82549 37.967 6.83822 38.0103 6.84742C38.1646 6.82798 38.3209 6.83029 38.4745 6.85427L38.5128 6.84514L38.636 6.81431L38.7374 6.76712C38.7925 6.7459 38.8441 6.71652 38.8904 6.67996L39.0091 6.59281L39.4204 6.20804C39.5498 6.08397 39.7078 5.93402 39.8827 5.75591L40.1601 5.47694C40.2033 5.42214 40.2515 5.3681 40.2936 5.30873C40.32 5.24479 40.3556 5.1877 40.3763 5.1211C40.4219 4.98088 40.4297 4.83117 40.3988 4.68702C40.3679 4.54286 40.2994 4.40932 40.2003 4.2998C40.074 4.18364 39.9411 4.07474 39.8023 3.97365L39.3546 3.62503L38.8954 3.25967L38.8373 3.21362H38.835L38.8311 3.21096L38.8001 3.19003L38.6765 3.10592C38.6467 3.09007 38.6153 3.07732 38.5828 3.06786C38.553 3.0535 38.5211 3.04387 38.4883 3.03932L38.3788 3.01572H38.2663C38.2291 3.01242 38.1916 3.01447 38.155 3.02181C38.1179 3.02386 38.0811 3.0296 38.0452 3.03894C37.9041 3.07444 37.7732 3.14177 37.6625 3.2357C37.3587 3.51048 37.0553 3.78564 36.7442 4.04139L36.5146 4.23472L36.4568 4.28268L36.4537 4.28534L36.4514 4.28801L36.4254 4.31465L36.3229 4.41931C36.2424 4.52643 36.1898 4.65168 36.1698 4.7839C36.1633 4.91635 36.1752 5.06782 36.2498 5.20102Z" fill="#020202"/>
<path d="M37.6553 11.3748C37.6886 11.4068 37.7226 11.4376 37.7574 11.4669C37.9981 11.6705 38.2522 11.661 38.5564 11.5841L38.6877 11.551L38.796 11.5004C38.8548 11.4779 38.9098 11.4464 38.959 11.4072L39.0864 11.3136L39.5253 10.9037C39.6634 10.7716 39.8314 10.6118 40.0193 10.4219L40.3166 10.125C40.3629 10.0668 40.4146 10.0108 40.4597 9.94574C40.4884 9.87762 40.5271 9.81635 40.5496 9.7448C40.5993 9.5942 40.6084 9.43328 40.5761 9.27808C40.5437 9.12289 40.471 8.97885 40.3652 8.86032C40.2309 8.73501 40.0893 8.61759 39.9412 8.50867L39.4652 8.13417L38.9773 7.74217C38.9773 7.74217 38.9153 7.6927 38.9062 7.68585L38.8733 7.66339L38.7412 7.5732C38.7085 7.55611 38.6742 7.54233 38.6387 7.53209C38.6058 7.51599 38.5705 7.50508 38.5342 7.49974L38.4152 7.47348L38.2924 7.47082C38.2517 7.46697 38.2108 7.46902 38.1707 7.47691C38.1303 7.47912 38.0902 7.48524 38.0509 7.49518C37.8967 7.534 37.7536 7.60771 37.6327 7.71059C37.4697 7.85787 37.2229 7.96596 37.097 8.13608C36.8632 8.45386 36.7844 8.86451 36.8108 9.25689C36.8425 9.72348 37.0113 10.1623 37.1509 10.5996C37.2521 10.8955 37.4254 11.1618 37.6553 11.3748Z" fill="#020202"/>
<path d="M36.523 19.697C36.3451 19.992 36.7951 20.3029 36.9849 20.5012L37.1505 20.6743L37.2271 20.7535L37.3143 20.8251L37.3996 20.8947L37.4888 20.943C37.545 20.9777 37.6056 21.0047 37.669 21.0233C38.0739 21.1824 38.6329 21.1885 38.7649 20.6926C38.7916 20.5895 38.7938 20.4815 38.7712 20.3774C38.7486 20.2733 38.7019 20.1758 38.6348 20.0928C38.5032 19.9322 38.3065 19.8412 38.1167 19.7552C37.7528 19.5908 37.3679 19.423 36.9688 19.4618C36.8326 19.4751 36.694 19.5158 36.5942 19.6087C36.5665 19.6348 36.5426 19.6645 36.523 19.697Z" fill="#020202"/>
<path d="M36.4048 24.3101L36.5938 24.5133C36.8414 24.782 37.0782 25.0335 37.299 25.2627L37.4605 25.432L37.537 25.5081L37.622 25.5782L37.705 25.6463L37.7923 25.6931C37.8468 25.7271 37.9058 25.7536 37.9675 25.7719C38.0801 25.811 38.1975 25.8345 38.3165 25.8415C38.4263 25.8312 38.5308 25.8373 38.6192 25.8069L38.7466 25.7749L38.8515 25.7262C38.9085 25.704 38.9619 25.6735 39.0099 25.6356L39.1323 25.5454L39.5582 25.1473C39.6925 25.0191 39.8555 24.8642 40.0373 24.68L40.3247 24.3915C40.3694 24.3348 40.4196 24.2773 40.4632 24.2176C40.4911 24.1517 40.5278 24.0924 40.55 24.0231C40.5976 23.8774 40.606 23.7219 40.5742 23.5721C40.5424 23.4222 40.4717 23.2832 40.369 23.1691C40.2387 23.0482 40.1015 22.9348 39.9581 22.8296L39.4955 22.4677L39.0213 22.0871L38.9613 22.0391L38.9582 22.0368L38.954 22.0342L38.9222 22.0125L38.7941 21.925C38.7627 21.9089 38.7297 21.8962 38.6957 21.8869C38.6644 21.8714 38.6308 21.8609 38.5962 21.8561L38.4814 21.8313L38.3636 21.829C38.3252 21.8256 38.2865 21.8276 38.2488 21.8351C38.21 21.8371 38.1716 21.843 38.134 21.8526C37.9849 21.8899 37.8465 21.9612 37.7299 22.0608C37.4154 22.3451 37.1012 22.6317 36.7782 22.8954L36.5391 23.0956L36.4798 23.1455L36.4767 23.1481L36.4736 23.1516L36.4465 23.1794L36.3405 23.2878C36.2569 23.401 36.2027 23.5329 36.1824 23.6718C36.1786 23.8191 36.192 23.9763 36.2708 24.1144C36.3026 24.186 36.3573 24.2412 36.4048 24.3101Z" fill="#020202"/>
<path d="M39.637 27.6097L39.1801 27.2531L38.7121 26.8794L38.6525 26.8322H38.6498L38.6456 26.8295L38.6142 26.8078L38.4879 26.7218C38.4572 26.7058 38.4249 26.6931 38.3915 26.6837C38.3606 26.6686 38.3276 26.6585 38.2935 26.6537L38.1814 26.6297L38.0666 26.6274C38.0283 26.6237 37.9896 26.6257 37.9518 26.6335C37.9131 26.6354 37.8746 26.6412 37.837 26.6506C37.6922 26.6876 37.5578 26.7569 37.444 26.8535C37.1337 27.134 36.8238 27.4152 36.505 27.6771L36.2689 27.8746L36.21 27.9237L36.2065 27.9267L36.2042 27.9294L36.1775 27.9568L36.0726 28.0637C35.9905 28.1746 35.9371 28.3039 35.9173 28.4401C35.9134 28.5851 35.9261 28.7408 36.0034 28.8755C36.0351 28.9467 36.0887 29.0007 36.1354 29.0685L36.3217 29.2694C36.5658 29.5358 36.7993 29.7832 37.017 30.01L37.1762 30.1771L37.25 30.2532L37.3342 30.3221L37.4161 30.3891L37.5003 30.4336C37.5541 30.467 37.6123 30.4926 37.6732 30.5097C37.7842 30.5486 37.9002 30.5719 38.0176 30.579C38.1263 30.5691 38.2292 30.5748 38.3165 30.5451L38.442 30.5132L38.5457 30.4652C38.6018 30.4432 38.6544 30.4132 38.7018 30.3762L38.8227 30.2867L39.2436 29.894C39.3757 29.7676 39.5368 29.6146 39.7158 29.4323L39.9994 29.148C40.0434 29.0917 40.0931 29.0369 40.136 28.976C40.1632 28.9109 40.1995 28.8527 40.2213 28.7857C40.268 28.6422 40.2761 28.489 40.2447 28.3414C40.2133 28.1938 40.1435 28.057 40.0422 27.9446C39.9137 27.8254 39.7784 27.7136 39.637 27.6097Z" fill="#020202"/>
<path d="M38.9257 34.813C39.3382 35.0584 39.7744 34.5507 40.061 34.2626C40.149 34.1743 40.2428 34.0803 40.3411 33.981C40.3847 33.9258 40.4337 33.8714 40.4762 33.8113C40.503 33.7469 40.5389 33.6895 40.56 33.621C40.6061 33.4793 40.6139 33.3281 40.5828 33.1825C40.5516 33.0369 40.4825 32.902 40.3824 32.7913C40.2551 32.6738 40.1211 32.5636 39.981 32.4613L39.5295 32.1093L39.0665 31.7405L38.9999 31.688L38.9689 31.6671L38.8438 31.5822C38.8136 31.5662 38.7818 31.5534 38.7489 31.5441C38.7185 31.5296 38.6861 31.5198 38.6528 31.5148L38.5423 31.4912H38.4275C38.3899 31.4876 38.3519 31.4896 38.315 31.4973C38.2774 31.4994 38.2401 31.5051 38.2036 31.5145C37.6491 31.6427 37.9908 32.2463 38.1374 32.555C38.2603 32.813 38.3626 33.0802 38.4435 33.3542C38.5553 33.7348 38.5132 34.4221 38.7963 34.7117C38.8348 34.7509 38.8783 34.7849 38.9257 34.813Z" fill="#020202"/>
<path d="M37.3277 38.4993C37.03 38.8936 36.5819 39.2094 37.0415 39.689L37.118 39.7693L37.2068 39.842L37.2937 39.9124L37.3843 39.9615C37.4413 39.9967 37.5029 40.0241 37.5673 40.0429C37.6845 40.0835 37.8068 40.1078 37.9308 40.1152C38.0456 40.1046 38.1539 40.1107 38.2457 40.0772C38.2924 40.0658 38.3364 40.0543 38.3781 40.0437L38.4875 39.9931C38.5466 39.97 38.6019 39.9383 38.6517 39.8991L38.7795 39.8047L39.223 39.391C39.3623 39.2578 39.5326 39.0964 39.7204 38.905L40.0204 38.6055C40.0671 38.5465 40.1196 38.4886 40.1647 38.4247C40.1942 38.3562 40.2328 38.2941 40.2562 38.2218C40.3065 38.0698 40.3158 37.9074 40.2832 37.7507C40.2506 37.594 40.1771 37.4486 40.0702 37.329C39.9349 37.2022 39.7922 37.0835 39.6428 36.9735C39.4132 36.7924 39.0435 36.3749 38.716 36.4125C38.4864 36.4388 38.3295 36.6523 38.235 36.8609C37.9763 37.4409 37.7138 37.9874 37.3277 38.4993Z" fill="#020202"/>
<path d="M38.9203 41.1763L38.9127 41.1702L38.9176 41.1744L38.9138 41.1721L38.884 41.1519L38.7642 41.0705C38.7358 41.056 38.7059 41.0446 38.675 41.0366C38.6466 41.0231 38.6163 41.014 38.5851 41.0096L38.4807 40.9875H38.3731C38.3377 40.9844 38.302 40.9865 38.2671 40.9936C38.2317 40.9956 38.1966 41.001 38.1623 41.01C38.0284 41.0443 37.9041 41.1085 37.7988 41.1976C37.5053 41.464 37.2118 41.7304 36.9095 41.9759L36.6852 42.1624L36.6298 42.2084L36.6271 42.2115L36.6018 42.237L36.5023 42.3382C36.4259 42.44 36.376 42.5589 36.3569 42.6845C36.3523 42.8189 36.3627 42.9643 36.4335 43.0906C36.4554 43.1355 36.4826 43.1777 36.5146 43.2162C37.0412 42.9529 37.5534 42.662 38.049 42.3447C38.5143 42.0474 38.9352 41.7639 39.3202 41.4918L38.9781 41.2212L38.9203 41.1763Z" fill="#020202"/>
<path d="M40.8818 6.71003C40.7945 6.60423 40.6675 6.52887 40.5317 6.5342C40.3438 6.54181 40.1873 6.7047 40.1436 6.88624C40.1 7.06778 40.1436 7.26035 40.2202 7.43123C40.3292 7.67708 40.4016 8.08811 40.6411 8.25367C41.1527 8.60571 41.0884 7.51534 41.0574 7.24475C41.0391 7.083 41.0111 6.91783 40.9273 6.77777C40.914 6.75404 40.8987 6.73139 40.8818 6.71003Z" fill="#020202"/>
<path d="M40.757 10.9242C40.7218 10.9623 40.6904 10.9961 40.6552 11.0296L40.6112 11.0799C40.3602 11.3634 40.258 11.6458 40.211 12.0275C40.2007 12.0811 40.2035 12.1362 40.219 12.1885C40.2638 12.3076 40.4176 12.3453 40.5443 12.3286C40.8504 12.2882 41.0911 12.0359 41.207 11.7527C41.323 11.4696 41.3348 11.1568 41.3444 10.8515C41.3651 10.2217 40.9885 10.6715 40.757 10.9242Z" fill="#020202"/>
<path d="M40.5557 21.9006C40.5175 22.0052 40.5588 22.167 40.6189 22.2534C40.7842 22.4939 40.9958 22.7184 41.1867 22.9384C41.331 23.1055 41.5311 23.4275 41.7764 23.4613C41.9624 23.4872 42.0645 23.2737 41.9762 23.1215C41.931 23.0454 41.7875 22.9818 41.719 22.9072C41.6123 22.7907 41.5112 22.6678 41.4072 22.5487C41.1967 22.3085 41.1393 21.8949 40.7773 21.8081C40.6491 21.778 40.5822 21.8244 40.5557 21.9006Z" fill="#020202"/>
<path d="M42.6776 24.4965L42.5746 24.4033L42.5796 24.4083L42.5655 24.3972L42.5368 24.3755L42.4794 24.3318L42.4216 24.288L42.3806 24.2731C42.3539 24.2652 42.334 24.253 42.3041 24.2431C42.1764 24.2076 42.0421 24.2029 41.9123 24.2294C41.7858 24.2663 41.6702 24.3331 41.5752 24.4239C41.2981 24.7043 41.0215 24.9852 40.7333 25.2478L40.5233 25.448L40.4704 25.4971L40.4678 25.4998V25.502L40.444 25.5291L40.3499 25.6356C40.2975 25.7197 40.2187 25.8583 40.2068 26.0021C40.1949 26.146 40.1972 26.2952 40.2573 26.4276C40.2822 26.4956 40.3167 26.5597 40.3599 26.6179C40.4075 26.6861 40.4586 26.7519 40.5129 26.8151C40.7268 27.0792 40.9338 27.3262 41.1252 27.5519C41.2208 27.6622 41.3111 27.7802 41.4014 27.8681C41.4882 27.9567 41.5904 28.029 41.703 28.0816C41.9172 28.1859 42.1388 28.1703 42.303 28.1338L42.4204 28.1007C42.456 28.087 42.4862 28.0672 42.5165 28.0523C42.5684 28.0295 42.6165 27.9989 42.6592 27.9617L42.7686 27.8716L43.1425 27.4792C43.26 27.3528 43.4031 27.2002 43.5611 27.019L43.8114 26.7355C43.8309 26.7073 43.8496 26.678 43.8718 26.6499C43.801 26.4154 43.726 26.1863 43.6422 25.9698C43.4942 25.599 43.3207 25.2387 43.123 24.8916L43.1004 24.8722L42.6776 24.4965Z" fill="#020202"/>
<path d="M40.7666 31.6953C40.9801 31.959 41.1848 32.2056 41.3765 32.4309C41.4718 32.5409 41.5617 32.6593 41.6521 32.7464C41.7385 32.835 41.8404 32.9072 41.9528 32.9595C42.1667 33.0638 42.3879 33.0482 42.5517 33.0117L42.6691 32.9786C42.7018 32.9642 42.7338 32.9482 42.7648 32.9306C42.8167 32.9078 42.8648 32.8772 42.9075 32.84L43.0166 32.7498L43.3901 32.3586C43.5072 32.2323 43.6499 32.08 43.8075 31.8989C43.8864 31.8102 43.9698 31.7154 44.0578 31.6157C44.0961 31.5609 44.1393 31.5061 44.1768 31.4471C44.2001 31.3847 44.2288 31.3265 44.2495 31.2629C44.289 31.1252 44.2969 30.9805 44.2725 30.8393C44.2481 30.6982 44.1921 30.5644 44.1087 30.4477C44.0623 30.3909 44.0122 30.3371 43.9587 30.2867C43.8925 30.23 43.8259 30.1725 43.7586 30.1139L43.3468 29.7562C43.2083 29.6336 43.068 29.5089 42.9259 29.3821L42.8226 29.2881L42.8283 29.2938L42.8138 29.2831L42.7855 29.261L42.7281 29.2177L42.6707 29.1739L42.6294 29.1594C42.6029 29.1514 42.583 29.1389 42.5551 29.129C42.4278 29.0938 42.2939 29.0893 42.1644 29.1157C42.0382 29.1525 41.9228 29.2191 41.8281 29.3098C41.5514 29.5895 41.2755 29.87 40.9893 30.1318L40.7777 30.3297L40.7249 30.3788L40.7226 30.3811L40.7203 30.3834L40.6966 30.4104L40.6028 30.5166C40.5504 30.6007 40.472 30.7389 40.4597 30.8823C40.4475 31.0258 40.4505 31.1746 40.5102 31.3071C40.5346 31.3752 40.5691 31.4393 40.6124 31.4973C40.6499 31.5605 40.7169 31.6309 40.7666 31.6953Z" fill="#020202"/>
<path d="M43.3488 34.5686C43.2292 34.4252 43.0971 34.2925 42.9542 34.1721C42.9542 34.1721 42.8513 34.0784 42.8559 34.0834L42.8417 34.0723L42.813 34.0507L42.7556 34.0069L42.6979 33.9631L42.6569 33.9483C42.6301 33.9403 42.6102 33.9277 42.5804 33.9182C42.4525 33.8828 42.3179 33.8781 42.1878 33.9045C42.0612 33.9415 41.9455 34.0082 41.8503 34.099C41.5729 34.3799 41.2962 34.6611 41.0084 34.9237L40.7961 35.122L40.7387 35.176L40.7153 35.2031L40.6208 35.3096C40.5684 35.3941 40.4896 35.5326 40.4777 35.6765C40.4658 35.8204 40.4681 35.9699 40.5282 36.1027C40.5531 36.1707 40.5876 36.2348 40.6308 36.293C40.669 36.3555 40.736 36.4259 40.7838 36.4906C40.9981 36.757 41.2048 37.0021 41.3961 37.2281C41.4917 37.3381 41.582 37.4565 41.6724 37.5444C41.7591 37.633 41.8613 37.7054 41.9739 37.7579C42.1886 37.8626 42.4105 37.8469 42.5747 37.8104L42.6921 37.7769C42.7251 37.7627 42.7571 37.7465 42.7882 37.7286C42.8195 37.7137 42.8498 37.6968 42.8789 37.678C43.0037 37.44 43.1163 37.1958 43.2164 36.9465C43.4352 36.3966 43.6583 35.9334 43.6189 35.3248C43.6017 34.9918 43.5079 34.7688 43.3488 34.5686Z" fill="#020202"/>
<path d="M40.5263 39.9521L40.5252 39.9536L40.5294 39.9485L40.5263 39.9521Z" fill="#020202"/>
<path d="M41.9207 38.6492C41.822 38.6896 41.6911 38.8273 41.61 38.9054C41.3314 39.1771 41.0636 39.4591 40.7762 39.7221L40.5654 39.9185L40.5087 39.9721L40.485 39.9992L40.3916 40.1046C40.2711 40.2412 40.1911 40.5289 40.418 40.5936C40.6832 40.6697 41.0184 40.1411 41.1711 39.9889C41.4615 39.6996 42.008 39.3038 42.047 38.8547C42.0646 38.6508 42.0049 38.6161 41.9207 38.6492Z" fill="#020202"/>
<path d="M19.8078 42.2697L19.8003 42.2791L19.8047 42.2737L19.8078 42.2697Z" fill="#020202"/>
<path d="M22.9151 43.5736C23.0043 43.475 23.0738 43.3604 23.1198 43.236C23.1572 43.0965 23.1657 42.951 23.1447 42.8082C23.1238 42.6653 23.074 42.5282 22.9982 42.4052C22.9668 42.3382 22.9075 42.291 22.8619 42.2339C22.8103 42.1783 22.7383 42.1152 22.676 42.055L22.2815 41.6813L21.8785 41.2904L21.7771 41.19C21.7771 41.19 21.7591 41.1713 21.7542 41.1668L21.7473 41.1611L21.6922 41.115C21.6596 41.0847 21.6243 41.0576 21.5866 41.0339C21.5626 41.027 21.5395 41.0174 21.5177 41.0054C21.4026 40.9654 21.2788 40.9564 21.1591 40.9795C21.0391 41.0186 20.9308 41.0867 20.8438 41.1778C20.5809 41.4686 20.3181 41.7597 20.0445 42.033L19.8424 42.2389L19.7919 42.2902C19.7984 42.2822 19.7793 42.3055 19.7984 42.2815L19.7873 42.2956L19.7648 42.3233L19.6748 42.4337C19.097 43.1405 20.0498 43.7064 20.602 43.9149C20.9969 44.0637 21.4228 44.1623 21.841 44.1052C22.2271 44.0504 22.6507 43.8704 22.9151 43.5736Z" fill="#020202"/>
<path d="M20.0257 37.4789L19.9748 37.5307C19.9817 37.5219 19.9549 37.555 19.9867 37.5155L19.9813 37.5223L19.9698 37.5364L19.9473 37.5646L19.8562 37.6761C19.8061 37.7682 19.7242 37.9098 19.7139 38.0605C19.6951 38.1343 19.7093 38.2089 19.7024 38.285C19.7196 38.3558 19.715 38.4372 19.7464 38.5035L19.7846 38.6093C19.7999 38.6428 19.8229 38.6724 19.839 38.7052C19.8799 38.7761 19.9265 38.8437 19.9783 38.9073C20.1814 39.1813 20.3766 39.4382 20.5591 39.673C20.6487 39.7894 20.739 39.9086 20.8193 40.0056L20.959 40.146L21.1067 40.2439C21.1913 40.2889 21.2835 40.3179 21.3788 40.3295C21.3998 40.3322 21.4205 40.3337 21.4411 40.3371C21.529 40.3428 21.6172 40.3355 21.7029 40.3154C21.7781 40.2988 21.85 40.2694 21.9152 40.2286C21.9667 40.204 22.0139 40.1715 22.0553 40.1323L22.1617 40.0364L22.5191 39.6269C22.9312 39.155 21.9872 38.462 21.7155 38.1217C21.528 37.8881 21.3478 37.6475 21.1798 37.3986C21.057 37.2171 20.9169 36.9419 20.6468 36.9834C20.47 37.012 20.3498 37.1505 20.2327 37.27L20.0257 37.4789Z" fill="#020202"/>
<path d="M22.8348 23.4164C22.8013 23.3563 22.7606 23.3004 22.7135 23.2501C22.6641 23.1972 22.5945 23.136 22.5351 23.08L22.1567 22.7242L21.7702 22.352L21.673 22.2568L21.6485 22.2325L21.6336 22.2176L21.6512 22.2359L21.6447 22.2305L21.5915 22.1872C21.5604 22.1584 21.5264 22.1329 21.4901 22.111C21.4682 22.1052 21.4471 22.0966 21.4274 22.0855C21.321 22.0477 21.2064 22.0392 21.0956 22.0612C20.9841 22.0979 20.8834 22.1614 20.8025 22.2462C20.6203 22.4479 20.5251 22.7029 20.6705 22.9616C20.7401 23.0846 20.8522 23.1771 20.9621 23.2661C21.163 23.4294 21.3638 23.593 21.5743 23.7464C21.8008 23.9131 22.0503 24.0722 22.3312 24.0965C22.4885 24.1099 22.6564 24.0752 22.7747 23.9713C22.9545 23.8115 22.9335 23.5968 22.8348 23.4164Z" fill="#020202"/>
<path d="M22.8879 18.7067C22.8585 18.6443 22.8026 18.5998 22.7598 18.548C22.7169 18.4963 22.6423 18.4365 22.5837 18.3802L22.2095 18.0293L21.8269 17.662L21.7304 17.568L21.7067 17.5441L21.6948 17.5323L21.6918 17.5292L21.7094 17.5479L21.7029 17.5425L21.6505 17.4995C21.6197 17.471 21.5863 17.4455 21.5506 17.4234C21.5292 17.4181 21.5086 17.4099 21.4894 17.3991C21.3851 17.3618 21.2726 17.3537 21.1641 17.3755C21.0548 17.4115 20.956 17.4739 20.8767 17.557C20.6291 17.8314 20.3793 18.1043 20.1229 18.3638L19.9316 18.5575L19.8837 18.6055C19.8906 18.5964 19.8635 18.6295 19.8987 18.5861L19.896 18.5891L19.8906 18.596L19.8799 18.6089L19.8585 18.6348L19.7724 18.7383C19.728 18.8194 19.6503 18.9492 19.6404 19.0873C19.6224 19.1551 19.6346 19.224 19.6278 19.294C19.6434 19.3591 19.6381 19.4336 19.666 19.4957L19.6985 19.5935C19.7123 19.6243 19.7318 19.6521 19.7479 19.6822C19.7854 19.7489 19.8283 19.8126 19.8761 19.8725C20.0647 20.1301 20.2457 20.371 20.4152 20.5914L20.6559 20.9035L20.7849 21.0363C20.8304 21.0698 20.8779 21.0976 20.923 21.128C21.0944 21.2169 21.2925 21.2405 21.4802 21.1942C21.5504 21.1789 21.6175 21.1516 21.6784 21.1135C21.7264 21.0903 21.7705 21.0599 21.8092 21.0233L21.908 20.9347L22.2424 20.5514C22.3469 20.4277 22.4747 20.2782 22.6163 20.1027L22.8382 19.8253L22.9427 19.6612C22.9631 19.6041 22.9839 19.5457 23.005 19.4858C23.0396 19.3548 23.047 19.2182 23.0269 19.0843C23.0068 18.9504 22.9595 18.8219 22.8879 18.7067Z" fill="#020202"/>
<path d="M20.0339 13.7643L20.0299 13.7695L20.0367 13.7607L20.0339 13.7643Z" fill="#020202"/>
<path d="M19.7533 14.5192C19.7701 14.5889 19.7655 14.668 19.7961 14.7339L19.8317 14.8378C19.8466 14.8705 19.8677 14.8998 19.8849 14.9318C19.925 15.0018 19.9707 15.0685 20.0215 15.1312C20.2213 15.4014 20.4133 15.6549 20.5928 15.8863C20.6812 16.0004 20.77 16.1184 20.8488 16.2139L20.9862 16.3525L21.1316 16.4488C21.3117 16.5439 21.5208 16.5691 21.7186 16.5196C21.7927 16.5032 21.8635 16.4744 21.9279 16.4343C21.9785 16.4098 22.0249 16.3778 22.0656 16.3392L22.169 16.2463L22.521 15.8433C22.6312 15.7131 22.7663 15.5559 22.9144 15.3698L23.1497 15.0783C23.1857 15.0223 23.2262 14.9664 23.261 14.9063C23.2832 14.8458 23.3054 14.7841 23.3284 14.7209C23.3653 14.5822 23.3735 14.4375 23.3526 14.2956C23.3317 14.1536 23.2821 14.0174 23.2067 13.8951C23.1757 13.8285 23.1168 13.7809 23.0716 13.7249C23.0204 13.6698 22.9484 13.607 22.8868 13.5472L22.4942 13.1754L22.0928 12.7872L21.9922 12.6871L21.9696 12.6643L21.9627 12.6585L21.9076 12.6129C21.8754 12.5825 21.8403 12.5554 21.8028 12.5318C21.779 12.525 21.756 12.5157 21.7343 12.504C21.6203 12.4643 21.4977 12.4555 21.3792 12.4785C21.2601 12.5172 21.1527 12.5849 21.0665 12.6753C20.8048 12.9645 20.5434 13.2538 20.2714 13.5255L20.0701 13.7303L20.0204 13.7813C20.0261 13.7737 20.0096 13.7938 20.0253 13.7744L20.0154 13.7866L19.9932 13.8144L19.9037 13.924C19.8547 14.0134 19.7736 14.1523 19.7636 14.3004C19.7452 14.3731 19.7602 14.4446 19.7533 14.5192Z" fill="#020202"/>
<path d="M20.03 13.7691L20.0268 13.773V13.7711L20.03 13.7691Z" fill="#020202"/>
<path d="M21.073 8.16461C21.0578 8.1573 21.0417 8.1518 21.0252 8.14825C20.9507 8.1378 20.8747 8.14931 20.8067 8.18136C20.5847 8.26623 20.3689 8.38154 20.23 8.5764C20.1478 8.69057 20.0862 8.80475 19.9832 8.90636C19.9867 8.90218 19.9951 8.88695 19.9989 8.88695C19.9511 8.93637 19.9076 8.98971 19.8688 9.04642C19.8198 9.13661 19.7387 9.27476 19.7284 9.42433C19.71 9.49702 19.7234 9.57048 19.7169 9.64545C19.7337 9.71548 19.7291 9.79502 19.7601 9.86086L19.7957 9.96514C19.8106 9.99825 19.8317 10.0276 19.8489 10.0599C19.8893 10.1299 19.9353 10.1966 19.9863 10.2593C20.1868 10.5307 20.3793 10.7849 20.5603 11.0167C20.6487 11.1309 20.7378 11.2496 20.817 11.3455L20.9548 11.4844L21.1006 11.5811C21.4243 11.7581 21.7997 11.6488 21.9623 11.3014C22.0174 11.183 22.0074 11.046 21.996 10.9158C21.9523 10.4154 21.836 9.95829 21.7369 9.46962C21.6478 9.03119 21.523 8.64833 21.2265 8.29477C21.1852 8.24097 21.1329 8.19659 21.073 8.16461Z" fill="#020202"/>
<path d="M20.0946 4.45889L20.0881 4.46707L20.0916 4.46277L20.0946 4.45889Z" fill="#020202"/>
<path d="M22.9239 4.40865C22.853 4.1755 22.7371 3.95833 22.5826 3.76928C22.5056 3.68243 22.4339 3.59105 22.3679 3.49564C22.1739 3.18204 21.8142 3.08841 21.4496 3.16605C21.3292 3.20487 21.2207 3.27319 21.1339 3.36472C20.8706 3.65548 20.6077 3.94701 20.3338 4.22064L20.1313 4.42654L20.0812 4.47792C20.0873 4.46993 20.0678 4.4939 20.0873 4.46955L20.0762 4.48325L20.054 4.51103L19.9637 4.6214C19.9144 4.71236 19.8329 4.85241 19.8225 5.00198C19.8042 5.07505 19.8176 5.14888 19.8111 5.22424C19.8279 5.29427 19.8233 5.37419 19.8543 5.44041L19.8903 5.54507C19.9052 5.57818 19.9285 5.60787 19.9438 5.63984C19.9842 5.71029 20.0303 5.77737 20.0816 5.8404C20.2829 6.11252 20.4761 6.36713 20.6556 6.60157C20.7443 6.71574 20.8335 6.83486 20.9131 6.93115L21.0512 7.07044L21.1978 7.16749C21.2226 7.17936 21.2482 7.18965 21.2743 7.19832C21.701 7.37453 21.8609 7.15189 22.1364 6.88472C22.6075 6.42802 22.9059 5.96333 22.9216 5.29503C22.927 5.06287 22.989 4.80446 22.9599 4.57839C22.9522 4.52099 22.9402 4.46425 22.9239 4.40865Z" fill="#020202"/>
<path d="M21.0432 2.44981C21.1168 2.49284 21.1984 2.52066 21.2831 2.53163C21.4022 2.55296 21.5244 2.55024 21.6424 2.52364L21.6661 2.51603C21.7339 2.49992 21.7985 2.47292 21.8575 2.4361C21.9091 2.41116 21.9566 2.37842 21.9983 2.33906L22.1047 2.24315C22.2619 2.10157 22.4904 1.87056 22.5481 1.66847C22.7054 1.11739 22.2083 1.36971 21.9527 1.5543C21.7614 1.69207 21.5467 1.79292 21.3458 1.91661C21.0845 2.07607 20.8381 2.31166 21.0432 2.44981Z" fill="#020202"/>
<path d="M27.7258 60.4996L26.3226 56.5701C26.1925 56.1373 26.1505 56.0468 26.5427 55.9802L26.9827 55.9288C27.3271 55.8755 27.2999 56.0133 27.3478 56.2081L28.322 60.2758C28.3365 60.3683 28.2011 60.4075 28.0541 60.4615C27.9137 60.5133 27.7633 60.5844 27.7258 60.4996Z" fill="#020202"/>
</svg>
