<svg width="90" height="24" viewBox="0 0 90 24" fill="none" xmlns="http://www.w3.org/2000/svg">
<path d="M4.2955 24C2.32374 24 1.07927 23.4059 0.633905 23.1543C0.351974 22.6523 0.0466965 21.0303 0 19.9569C0.116741 19.7973 0.466967 19.7513 0.563278 19.8887C0.913502 21.0535 1.87778 23.2918 4.60078 23.2918C6.57254 23.2918 7.53507 22.0355 7.53507 20.6651C7.53507 19.6598 7.32377 18.541 5.60884 17.4676L3.37908 16.0512C2.20524 15.2975 0.843457 13.9958 0.843457 12.1228C0.843457 9.95324 2.58057 8.19434 5.62985 8.19434C6.36723 8.20676 7.10032 8.30652 7.81292 8.49138C8.07943 8.57221 8.3558 8.61823 8.63477 8.62825C8.84607 9.1763 9.05737 10.4559 9.05737 11.4151C8.9634 11.552 8.59041 11.6207 8.47017 11.4833C8.16547 10.3871 7.53157 8.90256 5.27787 8.90256C2.97749 8.90256 2.48426 10.3871 2.48426 11.4378C2.48426 12.7622 3.61139 13.7215 4.47995 14.2468L6.36299 15.389C7.84152 16.28 9.29728 17.6039 9.29728 19.7746C9.29553 22.286 7.34712 24 4.2955 24Z" fill="white"/>
<path d="M18.364 10.1355C20.0778 8.83384 22.2608 8.19434 24.7025 8.19434C25.9697 8.19434 27.7541 8.44594 28.8573 8.7424C29.1386 8.81112 29.3032 8.85598 29.5145 8.83383C29.5379 9.35917 29.6552 10.7983 29.8432 12.1915C29.7264 12.3511 29.3762 12.3744 29.2093 12.2369C28.859 10.6842 27.8008 8.90256 24.3972 8.90256C20.8056 8.90256 17.754 11.1175 17.754 15.8456C17.754 20.6424 20.8763 23.2918 24.7258 23.2918C27.7541 23.2918 29.0919 21.3733 29.6319 20.0256C29.7959 19.912 30.1479 19.9569 30.2418 20.117C30.0778 21.3046 29.4678 22.8119 29.1153 23.2458C28.8351 23.2973 28.5602 23.3734 28.294 23.4729C27.7774 23.6552 26.087 23.9983 24.5851 23.9983C22.4721 23.9983 20.4537 23.5871 18.7399 22.4677C16.8615 21.2114 15.4063 19.1328 15.4063 16.1869C15.4063 13.6533 16.5778 11.4833 18.364 10.1355Z" fill="white"/>
<path d="M45.2647 18.3354C45.1007 17.8328 45.0067 17.7646 44.3022 17.7646H40.7579C40.1707 17.7646 40.03 17.8328 39.8654 18.3127L39.0441 20.7105C38.6939 21.7385 38.5276 22.3575 38.5276 22.6063C38.5276 22.8806 38.6443 23.0175 39.2082 23.0635L39.9827 23.1316C40.1473 23.2452 40.1474 23.6115 39.9361 23.703C39.3255 23.657 38.5982 23.657 37.4944 23.6342C36.7198 23.6342 35.8752 23.6797 35.2413 23.703C35.1006 23.6115 35.0533 23.2486 35.194 23.1316L35.9692 23.0635C36.5325 23.0175 37.049 22.7664 37.3771 21.9441C37.7997 20.8934 38.4569 19.4088 39.4428 16.8508L41.836 10.6842C42.1646 9.86181 42.303 9.4052 42.4495 8.98663C42.5662 8.6754 43.2217 8.63338 43.5714 8.53228C43.7085 8.50105 43.8556 8.4664 43.9023 8.62656C44.2076 9.63123 44.486 10.4542 44.8409 11.4589L48.0566 20.6407C48.7378 22.6046 49.043 22.9476 50.0523 23.0618L50.6862 23.1299C50.8502 23.2435 50.8029 23.6098 50.6862 23.7013C49.7236 23.6553 48.9024 23.6325 47.8459 23.6325C46.7187 23.6325 45.8268 23.678 45.1462 23.7013C44.9583 23.6098 44.9349 23.2469 45.0995 23.1299L45.7801 23.0618C46.2728 23.0158 46.6014 22.8789 46.6014 22.6506C46.6014 22.399 46.4846 21.9884 46.2967 21.4398L45.2647 18.3354ZM40.6166 16.3028C40.4293 16.8281 40.4526 16.8508 41.1099 16.8508H43.9969C44.6781 16.8508 44.7248 16.7594 44.5135 16.1426L43.2457 12.4198C43.0583 11.8717 42.847 11.255 42.7057 10.9812H42.659C42.5884 11.0948 42.3538 11.6434 42.0958 12.3284L40.6166 16.3028Z" fill="white"/>
<path d="M58.6135 11.9859C58.6135 9.58751 58.5668 9.22233 57.0877 9.10817L56.504 9.06217C56.3627 8.9713 56.41 8.56011 56.5507 8.49423C57.8657 8.53967 58.6637 8.56296 59.6023 8.56296C60.5181 8.56296 61.316 8.53967 62.4899 8.49423C62.6306 8.56295 62.6778 8.97414 62.5366 9.06217L61.9733 9.10817C60.5882 9.22176 60.5415 9.58751 60.5415 11.9859V19.937C60.5415 21.3761 60.6121 21.9696 61.0347 22.4035C61.2927 22.6551 61.7386 22.9289 63.5931 22.9289C65.5882 22.9289 66.0814 22.8374 66.4568 22.6319C66.9237 22.3581 67.5366 21.5357 68.0065 20.3709C68.1472 20.2573 68.5902 20.3482 68.5902 20.5078C68.5902 20.7594 67.933 23.089 67.6043 23.7058C66.4072 23.6598 64.1768 23.6371 61.7591 23.6371H59.5994C58.6135 23.6371 57.8628 23.6598 56.5477 23.7058C56.4071 23.6371 56.3598 23.2713 56.501 23.1345L57.205 23.0663C58.5668 22.9289 58.6135 22.6091 58.6135 20.2113V11.9859Z" fill="white"/>
<path d="M84.4694 18.3354C84.3054 17.8328 84.2114 17.7646 83.5074 17.7646H79.9626C79.3759 17.7646 79.2347 17.8328 79.0707 18.3127L78.2488 20.7105C77.8986 21.7385 77.7328 22.3575 77.7328 22.6063C77.7328 22.8806 77.8496 23.0175 78.4134 23.0635L79.188 23.1316C79.352 23.2452 79.352 23.6115 79.1413 23.703C78.5307 23.6569 77.8029 23.6569 76.6996 23.6342C75.9251 23.6342 75.0799 23.6797 74.4465 23.703C74.3053 23.6115 74.2586 23.2486 74.3993 23.1316L75.1738 23.0635C75.7371 23.0175 76.2537 22.7664 76.5823 21.9441C77.0049 20.8934 77.6622 19.4088 78.6481 16.8508L81.0413 10.6842C81.3699 9.8618 81.5082 9.42789 81.4405 9.06214C82.0038 8.90255 82.403 8.49421 82.661 8.19434C82.8017 8.19434 82.9663 8.24035 83.0113 8.39994C83.3165 9.40518 83.6919 10.4559 84.0444 11.4605L87.2647 20.6424C87.9453 22.6063 88.2506 22.9493 89.2599 23.0635L89.8938 23.1316C90.0584 23.2452 90.0105 23.6115 89.8938 23.703C88.9318 23.6569 88.1099 23.6342 87.0534 23.6342C85.9269 23.6342 85.035 23.6797 84.3538 23.703C84.1664 23.6115 84.1431 23.2486 84.3071 23.1316L84.9877 23.0635C85.4809 23.0175 85.8096 22.8806 85.8096 22.6523C85.8096 22.4007 85.6928 21.9901 85.5043 21.4414L84.4694 18.3354ZM79.8219 16.3028C79.6339 16.8281 79.6573 16.8508 80.3145 16.8508H83.2021C83.8827 16.8508 83.9294 16.7594 83.7181 16.1426L82.4509 12.4198C82.263 11.8717 82.0517 11.2549 81.911 10.9812H81.8643C81.7937 11.0948 81.559 11.6434 81.3004 12.3283L79.8219 16.3028Z" fill="white"/>
<path d="M42.2977 6.83812L40.1596 0.974193C39.9617 0.328451 39.8969 0.193282 40.4952 0.0938935L41.1665 0.0172167C41.6918 -0.0622943 41.6504 0.143303 41.7234 0.434086L43.2095 6.50419C43.2322 6.64219 43.025 6.70068 42.8009 6.78133C42.5849 6.85857 42.3549 6.96477 42.2977 6.83812Z" fill="white"/>
</svg>
