<svg width="23" height="23" viewBox="0 0 23 23" fill="none" xmlns="http://www.w3.org/2000/svg">
<path d="M15.8598 0H6.49318C2.91282 0 0 2.91282 0 6.49318V15.8598C0 19.4401 2.91282 22.3529 6.49318 22.3529H15.8598C19.4401 22.3529 22.3529 19.4401 22.3529 15.8598V6.49318C22.3529 2.91282 19.4401 0 15.8598 0ZM20.6066 15.8598C20.6066 18.4772 18.4772 20.6066 15.8598 20.6066H6.49318C3.87575 20.6066 1.74632 18.4772 1.74632 15.8598V6.49318C1.74632 3.87575 3.87575 1.74632 6.49318 1.74632H15.8598C18.4772 1.74632 20.6066 3.87575 20.6066 6.49318V15.8598Z" fill="black"/>
<path d="M11.1765 5.15161C7.85439 5.15161 5.15169 7.85431 5.15169 11.1764C5.15169 14.4985 7.85439 17.2012 11.1765 17.2012C14.4986 17.2012 17.2013 14.4985 17.2013 11.1764C17.2013 7.85431 14.4986 5.15161 11.1765 5.15161ZM11.1765 15.4549C8.81736 15.4549 6.89802 13.5356 6.89802 11.1764C6.89802 8.81728 8.81736 6.89794 11.1765 6.89794C13.5357 6.89794 15.455 8.81728 15.455 11.1764C15.455 13.5356 13.5357 15.4549 11.1765 15.4549Z" fill="black"/>
<path d="M17.2886 5.93749C17.7709 5.93749 18.1618 5.54656 18.1618 5.06432C18.1618 4.58209 17.7709 4.19116 17.2886 4.19116C16.8064 4.19116 16.4155 4.58209 16.4155 5.06432C16.4155 5.54656 16.8064 5.93749 17.2886 5.93749Z" fill="black"/>
</svg>
