<svg width="11" height="14" viewBox="0 0 11 14" fill="none" xmlns="http://www.w3.org/2000/svg">
<path d="M2.80103 3.82814V2.76477C2.79375 2.40858 2.85626 2.05445 2.98498 1.72264C3.1137 1.39082 3.30611 1.08785 3.55118 0.831043C3.79626 0.57424 4.08919 0.368654 4.41322 0.226053C4.73724 0.0834525 5.086 0.00663584 5.43953 0C5.79305 0.00663584 6.14181 0.0834525 6.46584 0.226053C6.78986 0.368654 7.0828 0.57424 7.32787 0.831043C7.57295 1.08785 7.76535 1.39082 7.89407 1.72264C8.02279 2.05445 8.0853 2.40858 8.07802 2.76477V3.82814H9.90175C9.98521 3.82793 10.2057 3.82814 10.2057 3.82814C10.2057 3.82814 10.2252 4.05264 10.231 4.13651L10.8643 13.441C10.8701 13.5289 10.8917 13.7962 10.8917 13.7962C10.8917 13.7962 10.6806 13.7962 10.5582 13.7962H0.35039C0.263058 13.7962 0 13.7962 0 13.7962L0.0211054 13.4644V13.441L0.648013 4.13651C0.653897 4.05264 0.669125 3.82814 0.669125 3.82814C0.669125 3.82814 0.893844 3.82793 0.977297 3.82814H2.80103ZM3.79099 3.82814H7.08806V2.76477C7.10113 2.31101 6.93481 1.87061 6.62566 1.54039C6.31652 1.21017 5.88987 1.01717 5.43953 1.00382C4.98918 1.01717 4.56253 1.21017 4.25339 1.54039C3.94425 1.87061 3.77793 2.31101 3.79099 2.76477V3.82814ZM1.05751 12.7987H9.82365L9.2854 4.82345H1.59365L1.05751 12.7987Z" fill="white"/>
</svg>
