<svg width="15" height="14" viewBox="0 0 15 14" fill="none" xmlns="http://www.w3.org/2000/svg">
<path d="M7.86563 13.1081L7.89809 13.1358L7.93055 13.1081L8.17357 12.9006C8.17365 12.9006 8.17373 12.9005 8.1738 12.9005C10.7902 10.7192 12.4577 9.2407 13.4706 7.99465C14.4861 6.74539 14.8462 5.72665 14.8462 4.4667C14.8462 2.36211 13.2018 0.676105 11.1442 0.676105C9.48984 0.676105 8.54794 1.61028 7.89809 2.35401C7.24824 1.61028 6.30634 0.676105 4.65193 0.676105C2.59434 0.676105 0.95 2.36211 0.95 4.4667C0.95 5.72665 1.31008 6.74539 2.3256 7.99465C3.33852 9.2407 5.00602 10.7192 7.62237 12.9005C7.62245 12.9005 7.62253 12.9006 7.62261 12.9006L7.86563 13.1081ZM7.85954 3.70886L7.89809 3.75552L7.93664 3.70886L8.38266 3.16895C8.99148 2.4622 9.74905 1.60735 11.1442 1.60735C12.698 1.60735 13.9346 2.87225 13.9346 4.4667C13.9346 5.5126 13.6157 6.38488 12.6984 7.49485C11.7828 8.60268 10.2743 9.94348 7.89809 11.9243C5.52187 9.94348 4.01338 8.60268 3.09782 7.49485C2.18049 6.38488 1.86154 5.5126 1.86154 4.4667C1.86154 2.87225 3.09816 1.60735 4.65193 1.60735C6.04712 1.60735 6.80469 2.4622 7.41352 3.16895L7.85954 3.70886Z" fill="white" stroke="white" stroke-width="0.1"/>
</svg>
