<svg width="19" height="23" viewBox="0 0 19 23" fill="none" xmlns="http://www.w3.org/2000/svg">
<path d="M2.71329 0H4.0652L4.99276 3.44798L5.85272 0H7.21777L5.65463 5.12726V8.62646H4.31117V5.12726L2.71329 0V0ZM8.9039 2.21017C7.85335 2.21017 7.15675 2.89939 7.15675 3.91926V7.03846C7.15675 8.15984 7.74727 8.74382 8.9039 8.74382C9.86337 8.74382 10.6182 8.10768 10.6182 7.03846V3.91926C10.6182 2.92361 9.86995 2.21017 8.9039 2.21017ZM9.40241 6.98537C9.40241 7.33184 9.22403 7.58704 8.90296 7.58704C8.57343 7.58704 8.38285 7.31973 8.38285 6.98537V4.0245C8.38285 3.67617 8.54433 3.41817 8.87949 3.41817C9.24563 3.41817 9.40241 3.66871 9.40241 4.0245V6.98537ZM13.8421 2.26326V7.09341C13.6966 7.2741 13.3727 7.57028 13.1408 7.57028C12.8864 7.57028 12.8235 7.39704 12.8235 7.14184V2.26326H11.6312V7.58145C11.6312 8.21013 11.8246 8.71774 12.4639 8.71774C12.8244 8.71774 13.3258 8.53146 13.8421 7.92327V8.62553H15.0344V2.26326H13.8421ZM15.9103 15.1704C15.4897 15.1704 15.4024 15.4637 15.4024 15.881V16.4948H16.406V15.8801C16.407 15.4703 16.3197 15.1704 15.9103 15.1704ZM11.495 15.2076C11.4162 15.2477 11.3383 15.3091 11.2603 15.392V19.1688C11.3533 19.2675 11.4425 19.3383 11.5298 19.3821C11.7147 19.4752 11.9851 19.4817 12.1109 19.3197C12.1766 19.234 12.2095 19.0952 12.2095 18.9015V15.773C12.2095 15.5681 12.1691 15.4134 12.0884 15.3073C11.9504 15.1275 11.6941 15.108 11.495 15.2076ZM16.0268 10.3691C13.5821 10.2042 5.63773 10.2042 3.19679 10.3691C0.554938 10.5479 0.243249 12.1313 0.223534 16.2992C0.243249 20.4597 0.552122 22.0505 3.19679 22.2293C5.63773 22.3942 13.5821 22.3942 16.0268 22.2293C18.6686 22.0505 18.9803 20.4662 19 16.2992C18.9803 12.1387 18.6714 10.5479 16.0268 10.3691ZM4.45669 20.3218H3.17707V13.2992H1.85333V12.107H5.77949V13.2992H4.45575V20.3218H4.45669ZM9.00623 20.3218H7.87025V19.6531C7.66089 19.8999 7.44309 20.0881 7.21683 20.2166C6.60472 20.5649 5.76447 20.5565 5.76447 19.3271V14.2623H6.89951V18.908C6.89951 19.152 6.95865 19.3159 7.20181 19.3159C7.42337 19.3159 7.73131 19.0337 7.86931 18.8624V14.2623H9.00529V20.3218H9.00623ZM13.3783 19.0663C13.3783 19.8161 13.0957 20.3991 12.34 20.3991C11.9241 20.3991 11.5777 20.2483 11.2613 19.8561V20.3218H10.115V12.107H11.2613V14.7522C11.5176 14.442 11.8659 14.1859 12.2715 14.1859C13.1033 14.1859 13.3793 14.8835 13.3793 15.705V19.0663H13.3783ZM17.5758 17.4345H15.4034V18.5783C15.4034 19.0328 15.4428 19.4258 15.8991 19.4258C16.3788 19.4258 16.407 19.1054 16.407 18.5783V18.1573H17.5758V18.6127C17.5758 19.7798 17.0707 20.4876 15.8737 20.4876C14.7894 20.4876 14.2345 19.7034 14.2345 18.6127V15.8922C14.2345 14.8406 14.9349 14.1095 15.9592 14.1095C17.0491 14.1095 17.5749 14.7969 17.5749 15.8922V17.4345H17.5758Z" fill="black"/>
</svg>
